<?xml version="1.0" standalone="no"?>
<!DOCTYPE svg PUBLIC "-//W3C//DTD SVG 20010904//EN"
 "http://www.w3.org/TR/2001/REC-SVG-20010904/DTD/svg10.dtd">
<svg version="1.0" xmlns="http://www.w3.org/2000/svg"
 width="160.000000pt" height="150.000000pt" viewBox="0 0 160.000000 150.000000"
 preserveAspectRatio="xMidYMid meet">

<g transform="translate(0.000000,150.000000) scale(0.100000,-0.100000)"
fill="#000000" stroke="none">
<path d="M395 1384 c-59 -29 -70 -57 -73 -184 l-4 -115 -45 -48 c-24 -26 -59
-78 -76 -115 l-32 -67 -3 -327 -3 -328 55 0 56 0 2 243 3 242 180 0 180 0 3
-242 2 -243 381 0 380 0 -3 333 -3 332 -29 58 c-16 33 -51 83 -78 112 l-48 53
0 107 c0 123 -15 161 -74 189 -49 23 -725 24 -771 0z m719 -100 c13 -5 16 -22
16 -85 l0 -79 -350 0 -350 0 0 73 c0 43 5 78 12 85 9 9 97 12 334 12 177 0
329 -3 338 -6z m85 -320 c43 -46 80 -114 81 -146 0 -17 -30 -18 -500 -18 -475
0 -500 1 -500 18 0 33 51 120 91 156 l39 36 374 0 373 0 42 -46z m-234 -464
l0 -185 -105 0 -105 0 -3 174 c-2 122 1 178 9 188 9 10 35 13 108 11 l96 -3 0
-185z m323 -2 l2 -188 -105 0 -105 0 0 183 c0 101 3 187 7 191 4 4 50 5 103 4
l95 -3 3 -187z"/>
</g>
</svg>
