<?xml version="1.0" standalone="no"?>
<!DOCTYPE svg PUBLIC "-//W3C//DTD SVG 20010904//EN"
 "http://www.w3.org/TR/2001/REC-SVG-20010904/DTD/svg10.dtd">
<svg version="1.0" xmlns="http://www.w3.org/2000/svg"
 width="300.000000pt" height="229.000000pt" viewBox="0 0 300.000000 229.000000"
 preserveAspectRatio="xMidYMid meet">
<metadata>
Created by potrace 1.10, written by Peter Selinger 2001-2011
</metadata>
<g transform="translate(0.000000,229.000000) scale(0.100000,-0.100000)"
fill="#000000" stroke="none">
<path d="M1182 1693 c-1 -14 -9 -23 -19 -24 -50 -2 -112 -34 -138 -72 -29 -41
-15 -41 28 0 40 40 82 63 113 63 11 0 14 -18 14 -86 0 -50 -4 -83 -9 -79 -5 3
-13 0 -17 -6 -4 -8 -3 -9 5 -5 7 4 15 -2 20 -16 8 -19 10 -20 10 -4 1 14 4 16
14 7 8 -6 24 -13 38 -15 13 -3 25 -5 27 -7 1 -1 5 -2 10 -4 4 -1 20 -7 35 -13
16 -7 35 -12 42 -12 11 0 9 -8 -6 -35 -14 -24 -17 -33 -7 -30 7 3 18 15 24 28
10 23 14 24 52 12 12 -3 22 -2 22 4 0 5 -14 12 -30 16 -23 5 -29 11 -26 23 3
10 1 24 -5 32 -8 12 -9 10 -4 -8 10 -34 -11 -35 -100 -3 l-80 29 -6 113 c-3
63 -6 104 -7 92z"/>
<path d="M1233 1655 c63 -24 94 -53 123 -111 29 -60 39 -66 24 -15 -20 71 -79
125 -145 135 l-40 6 38 -15z"/>
<path d="M780 1622 c0 -5 8 -12 18 -15 107 -33 154 -45 146 -38 -5 5 -36 17
-69 29 -33 11 -68 23 -77 27 -10 4 -18 3 -18 -3z"/>
<path d="M610 1528 c-74 -22 -146 -43 -160 -47 -21 -6 -26 -14 -28 -49 -3 -39
-1 -42 22 -42 49 0 56 -9 56 -66 0 -50 -2 -54 -27 -60 -16 -3 -32 -7 -38 -9
-6 -1 -9 -28 -7 -64 l4 -61 39 0 39 0 0 -120 0 -120 -70 0 -70 0 0 169 c0 153
2 170 18 174 16 4 16 5 0 6 -15 1 -18 11 -18 71 0 64 2 72 23 80 l22 9 -23 0
c-23 1 -24 4 -20 66 1 36 0 65 -4 65 -5 0 -8 -18 -8 -40 0 -37 -2 -39 -35 -46
-19 -3 -38 -11 -42 -17 -6 -10 23 -5 61 9 12 5 16 0 16 -19 0 -22 -6 -27 -35
-33 -19 -3 -38 -11 -42 -17 -6 -10 23 -5 61 9 14 5 16 -4 16 -65 0 -39 -3 -71
-7 -72 -69 -7 -101 -23 -35 -17 l43 4 -3 -178 -3 -178 588 0 c384 0 587 3 587
10 0 6 -25 10 -55 10 l-55 0 0 114 0 114 -160 78 -161 78 3 45 c3 40 6 46 33
53 22 5 52 0 105 -17 l75 -24 -52 -22 c-59 -25 -71 -43 -21 -28 18 5 34 9 35
9 1 0 11 9 22 21 l19 21 71 -23 71 -23 1 -190 c0 -105 3 -182 7 -171 4 11 7
95 7 187 0 100 4 168 9 168 16 0 -12 24 -31 26 -10 1 -81 22 -158 46 -136 43
-140 45 -138 71 1 15 1 27 0 27 -1 0 -83 27 -181 60 -98 33 -191 60 -205 59
-14 0 -87 -18 -161 -41z m158 -5 c-3 -27 -7 -29 -165 -69 l-163 -42 0 24 c0
20 9 26 73 44 39 12 106 32 147 45 101 32 112 32 108 -2z m204 -29 c157 -52
168 -57 168 -81 0 -18 -4 -23 -17 -19 -56 16 -264 76 -300 85 -38 11 -43 15
-43 41 0 17 5 30 12 30 7 0 88 -25 180 -56z m-212 -324 l0 -280 -25 0 -26 0 1
196 c1 109 -3 201 -8 206 -8 8 -87 0 -154 -17 l-28 -7 0 66 c0 60 2 66 23 70
12 3 60 14 107 25 47 10 91 19 98 20 9 1 12 -61 12 -279z m175 239 c60 -17
115 -35 122 -41 7 -6 13 -29 13 -52 1 -53 19 -75 98 -116 34 -18 62 -37 62
-42 0 -21 -91 4 -162 45 -41 23 -114 62 -164 87 -49 25 -92 50 -96 55 -13 17
-9 95 5 95 6 0 61 -14 122 -31z m30 -193 l170 -92 3 -117 3 -117 -81 0 -80 0
0 120 c0 112 1 120 18 111 53 -29 55 -34 53 -119 -1 -48 2 -83 8 -87 8 -4 11
22 11 79 0 47 3 86 6 86 3 0 14 -5 25 -10 10 -6 19 -8 19 -5 0 2 -37 23 -82
46 -46 22 -122 64 -170 92 -76 45 -88 56 -88 80 0 15 3 27 8 27 4 -1 84 -42
177 -94z m-295 -131 l0 -195 -41 0 -40 0 3 141 3 141 -65 -7 c-36 -4 -69 -8
-75 -8 -14 -3 -19 74 -5 83 6 4 28 8 48 9 29 1 158 24 170 30 1 0 2 -87 2
-194z m178 -40 l3 -155 -36 0 -35 0 0 176 0 176 33 -21 32 -20 3 -156z m81 76
c16 -16 19 -34 19 -103 0 -45 -5 -89 -10 -95 -17 -22 -48 -15 -50 10 -9 137
-5 207 12 207 6 0 19 -9 29 -19z m379 -7 l92 -7 0 -29 0 -30 -105 3 c-58 1
-108 0 -112 -4 -3 -4 44 -7 105 -7 l112 0 0 -75 0 -75 -124 0 -124 0 0 115 1
115 32 0 c18 0 73 -3 123 -6z"/>
<path d="M560 1341 c0 -46 7 -51 15 -11 2 13 0 30 -5 39 -7 12 -9 4 -10 -28z"/>
<path d="M1190 977 c0 -36 4 -56 10 -52 13 8 13 75 0 95 -7 11 -10 -2 -10 -43z"/>
<path d="M960 1561 c0 -6 3 -11 8 -12 20 -2 45 -8 60 -15 9 -4 20 -8 25 -9 4
-2 9 -4 12 -5 3 -1 9 -3 14 -4 5 0 13 -4 17 -8 4 -5 19 -8 33 -7 17 0 2 9 -44
25 -38 14 -77 26 -85 27 -8 1 -21 6 -27 10 -8 5 -13 4 -13 -2z"/>
<path d="M1458 1409 c-7 -20 4 -89 14 -89 6 0 8 12 5 30 -5 20 -3 30 6 30 8 0
8 3 -2 9 -7 5 -10 14 -7 20 4 6 3 11 -3 11 -5 0 -11 -5 -13 -11z"/>
<path d="M1815 1328 c-3 -8 -4 -59 -3 -114 2 -80 6 -99 18 -99 12 0 14 10 12
48 -4 47 -4 47 27 47 21 0 31 5 31 15 0 10 -10 15 -31 15 -31 0 -31 0 -27 47
2 31 -1 48 -9 50 -7 3 -15 -2 -18 -9z"/>
<path d="M2257 1334 c-4 -4 -7 -67 -7 -141 0 -120 2 -133 18 -133 15 0 17 12
15 137 -2 127 -7 155 -26 137z"/>
<path d="M2680 1300 c0 -39 -1 -40 -35 -40 -19 0 -35 -4 -35 -10 0 -5 16 -10
35 -10 31 0 35 -3 35 -25 0 -22 -4 -25 -36 -25 -24 0 -34 -4 -31 -12 2 -8 17
-12 36 -10 l31 2 0 -61 c0 -44 3 -60 13 -57 8 3 13 43 15 140 2 114 0 137 -13
142 -12 4 -15 -3 -15 -34z"/>
<path d="M2080 1290 c0 -45 -23 -92 -59 -122 -32 -28 -40 -48 -18 -48 16 0 77
62 77 78 0 20 8 14 56 -35 34 -36 47 -44 53 -34 6 9 -5 26 -35 56 -40 37 -44
46 -44 88 0 35 -4 47 -15 47 -10 0 -15 -10 -15 -30z"/>
<path d="M1570 1222 l0 -84 98 7 c101 8 116 11 107 25 -3 4 -43 5 -90 2 l-85
-5 0 57 0 56 71 0 c52 0 70 3 66 13 -2 8 -29 12 -85 12 l-82 1 0 -84z"/>
<path d="M2410 1290 c0 -5 9 -10 20 -10 18 0 20 -7 20 -70 0 -68 -1 -70 -25
-70 -17 0 -25 -6 -25 -16 0 -15 9 -16 68 -11 37 4 86 7 110 7 32 0 42 4 42 16
0 12 -6 15 -25 10 -25 -6 -25 -6 -25 64 0 63 2 70 20 70 11 0 20 5 20 10 0 6
-40 10 -100 10 -60 0 -100 -4 -100 -10z m130 -80 l0 -70 -30 0 -30 0 0 70 0
70 30 0 30 0 0 -70z"/>
<path d="M1643 1085 c-39 -17 -50 -48 -28 -81 20 -32 53 -44 116 -44 83 0 131
38 114 90 -15 46 -131 66 -202 35z m142 -19 c76 -32 13 -95 -81 -81 -75 11
-95 65 -30 84 46 14 73 13 111 -3z"/>
<path d="M2049 1088 c0 -1 -1 -29 -2 -61 l-2 -57 128 0 c102 0 127 3 127 14 0
11 -22 14 -112 12 l-113 -1 0 44 c0 26 -5 46 -12 48 -7 3 -13 3 -14 1z"/>
<path d="M2470 1025 l0 -55 125 0 c102 0 125 3 125 14 0 12 -19 14 -110 9
l-110 -6 0 47 c0 34 -4 46 -15 46 -12 0 -15 -13 -15 -55z"/>
</g>
</svg>
